PathFileType	4	(X/Y/Z)	C:\Users\Biomechanik\SynologyDrive\AlexP\Athlete_03\Athlete_3_25_03_31\Walking_04\marker_experimental.trc
DataRate	CameraRate	NumFrames	NumMarkers	Units	OrigDataRate	OrigDataStartFrame	OrigNumFrames
200.000000	200.000000	4	53	mm	200.000000	57	463
Frame#	Time	GLAB			RFHD			LFHD			C7			T6			SPINMOL			SPINM2			SPINM3			T12			BELTOL			BELT2			BELT3			SACROL			SACR2			SACR3			LTHOL			LTH2			LTH3			LSHAOL			LSHA2			LSHA3			LHEE			LTOE			LM5			RTH2			RSHAOL			RSHA2			RSHA3			RHEE			RTOE			RM5			STRN			XIPH			LACR			LUAOL			LUA2			LUA3			LLAOL			LLA2			LLA3			LWRR			LWRU			RACR			RUAOL			RUA2			RUA3			RLAOL			RLA2			RLA3			RWRR			RWRU			RTH3			RTHOL			
		X1	Y1	Z1	X2	Y2	Z2	X3	Y3	Z3	X4	Y4	Z4	X5	Y5	Z5	X6	Y6	Z6	X7	Y7	Z7	X8	Y8	Z8	X9	Y9	Z9	X10	Y10	Z10	X11	Y11	Z11	X12	Y12	Z12	X13	Y13	Z13	X14	Y14	Z14	X15	Y15	Z15	X16	Y16	Z16	X17	Y17	Z17	X18	Y18	Z18	X19	Y19	Z19	X20	Y20	Z20	X21	Y21	Z21	X22	Y22	Z22	X23	Y23	Z23	X24	Y24	Z24	X25	Y25	Z25	X26	Y26	Z26	X27	Y27	Z27	X28	Y28	Z28	X29	Y29	Z29	X30	Y30	Z30	X31	Y31	Z31	X32	Y32	Z32	X33	Y33	Z33	X34	Y34	Z34	X35	Y35	Z35	X36	Y36	Z36	X37	Y37	Z37	X38	Y38	Z38	X39	Y39	Z39	X40	Y40	Z40	X41	Y41	Z41	X42	Y42	Z42	X43	Y43	Z43	X44	Y44	Z44	X45	Y45	Z45	X46	Y46	Z46	X47	Y47	Z47	X48	Y48	Z48	X49	Y49	Z49	X50	Y50	Z50	X51	Y51	Z51	X52	Y52	Z52	X53	Y53	Z53	

58	0.285	-349.3165283203127	1605.850219726562	306.1138000488281	-399.781219482422	1630.351806640625	370.8763427734374	-393.1816711425783	1629.588256835938	233.4679870605468	-576.9331665039064	1444.3310546875	293.0159301757811	-633.6453247070314	1274.1162109375	286.806182861328	-641.2570800781251	1233.936767578125	265.3247985839843	-644.505554199219	1225.790405273438	315.1051330566405	-635.3210449218751	1169.7099609375	280.3804626464843	-609.9766235351564	1104.12646484375	281.2783203124999	-644.8844604492189	1068.107666015625	269.1769104003905	-641.6894531250002	1066.2001953125	319.5406188964843	-646.9385375976564	1005.878784179688	291.1254577636718	-630.3836059570314	956.4669189453125	261.088653564453	-627.427185058594	953.9169311523438	312.3772888183593	-641.3609008789062	895.1795654296875	284.7535705566405	-477.4994812011719	676.0099487304688	71.69641113281241	-501.6985168457032	609.1074829101562	105.8345642089843	-461.2372436523438	618.290283203125	78.70368957519523	-517.791015625	415.0348510742187	62.50188064575186	-592.6271362304688	405.3868103027343	87.25346374511707	-557.4552001953125	370.5615844726562	77.87673187255849	-721.5816040039062	293.5275573730468	192.8727111816405	-622.2049560546875	96.77432250976558	186.0819702148436	-674.9212646484375	118.4600982666015	96.52031707763659	-460.3783264160157	635.7635498046875	457.8628540039062	-522.2525024414064	336.1792602539062	428.8300476074218	-487.8922119140626	264.6343994140624	426.419952392578	-534.1062622070314	277.0691528320312	412.1752624511718	-562.1333618164062	64.499153137207	298.8128051757811	-349.3384704589844	48.53570175170896	309.6043395996093	-403.6223144531251	36.67384338378904	409.7273559570312	-403.8056945800782	1345.410766601562	289.3471984863281	-385.9838867187501	1202.3388671875	284.3344726562499	-499.3329467773439	1411.962524414062	117.6663970947265	-504.3507080078126	1261.79296875	12.81348514556876	-517.6235961914064	1201.395751953125	-9.028765678405858	-471.4751892089844	1204.936645507812	11.41790103912345	-460.4632568359376	1001.561340332031	-43.87490463256844	-486.0413513183594	928.4925537109375	-29.99575614929208	-439.5352783203126	944.25634765625	-43.03293991088875	-393.7853088378907	850.288330078125	-44.58178710937507	-357.4744567871094	862.180419921875	24.08335304260248	-489.6085510253908	1398.504028320312	460.0862426757811	-506.3971252441408	1249.573364257812	559.8066406249999	-482.1296691894533	1188.413940429688	566.3295288085936	-530.5942993164065	1192.310546875	581.1537475585936	-482.7517089843752	973.1500854492188	610.6271972656249	-417.5408630371095	928.9937133789062	629.8406372070311	-461.1864318847658	913.39013671875	610.3734741210936	-411.4414367675783	839.1673583984375	617.5706176757811	-372.9530639648439	833.9686279296875	545.4119873046874	-507.2502746582032	626.8547973632812	442.6853027343749	-522.1808471679689	684.606689453125	453.9364318847655	
59	0.29	-342.8728942871095	1606.505737304688	305.9190368652343	-393.331024169922	1631.023559570312	370.7310791015624	-386.7615661621095	1630.148071289062	233.3350982666015	-570.6055908203126	1445.02490234375	293.2468872070311	-627.3999023437501	1274.812377929688	287.303253173828	-635.0326538085939	1234.63330078125	265.8809814453124	-638.2112426757815	1226.538452148438	315.6729125976561	-629.1057128906251	1170.438720703125	280.9980468749999	-603.8350219726564	1104.82275390625	281.8180847167968	-638.8583984375001	1068.779541015625	269.519561767578	-635.6998291015627	1066.853759765625	319.8317871093749	-640.8906250000001	1006.574829101562	291.3927917480468	-624.1717529296876	957.2590942382812	260.9264221191405	-621.4822387695315	954.390380859375	312.2496032714843	-635.43701171875	895.8555908203125	284.1949462890624	-467.8655395507813	677.4193725585938	71.48535156249991	-491.9685058593751	610.1105346679688	104.7308197021484	-451.0572509765626	619.856689453125	78.49862670898429	-505.2231750488281	414.5513916015624	62.641990661621	-579.8225708007812	403.1654968261718	86.80715942382803	-543.6791381835938	368.9687499999999	78.37830352783193	-707.3821411132812	288.6518859863281	193.7784118652342	-601.3251342773438	95.25018310546871	186.3563690185546	-654.8319091796875	115.3704223632812	96.91488647460926	-457.6793823242189	635.9395141601562	458.1383056640624	-521.2932128906251	336.8251037597656	428.7322998046874	-486.3981628417969	264.5001220703124	426.0588073730468	-533.3960571289064	277.8041381835937	412.1016540527343	-561.8378295898438	65.19560241699216	298.6480407714843	-349.2439270019532	48.54437637329099	309.6293029785156	-403.6387023925782	36.64044189453123	409.7562255859374	-397.594451904297	1346.119995117188	289.4276428222656	-379.2798156738282	1203.319213867188	284.1940612792968	-493.3331604003907	1412.4189453125	117.8046569824218	-499.3520812988282	1262.138427734375	13.03166103363028	-512.7476806640626	1201.639038085938	-8.794955253601168	-466.5291137695313	1205.041259765625	11.36020851135245	-457.2492065429688	1001.70654296875	-43.88638687133798	-482.9962463378907	928.6365966796875	-30.04727935791025	-436.8558654785157	944.12841796875	-43.51423263549813	-392.3307189941407	849.723388671875	-45.41225433349616	-355.4920654296876	860.8976440429688	23.09798431396478	-483.0610656738283	1399.4609375	460.1836853027343	-499.054656982422	1250.763305664062	560.2536010742186	-474.7785644531252	1189.703979492188	567.0385742187499	-523.2938232421877	1193.4619140625	582.1137084960936	-473.4494018554689	974.4332275390625	611.2167968749999	-407.2674865722658	930.9284057617188	629.6124267578124	-451.1565551757814	914.9724731445312	610.6595458984374	-400.2744140625002	841.1832885742188	617.3213500976561	-362.3789672851564	836.7229614257812	544.9331054687499	-504.5266723632814	627.551513671875	442.5820922851561	-518.8955078125001	685.4767456054688	453.697052001953	
60	0.295	-336.4623107910158	1607.070068359375	305.7276611328124	-386.7749938964845	1631.703979492188	370.4346313476562	-380.3298950195314	1630.662109375	233.0838470458984	-564.0934448242189	1445.635864257812	293.5373535156249	-621.1334228515626	1275.51123046875	287.7800292968749	-628.8350219726564	1235.280517578125	266.3980407714843	-632.0024414062502	1227.231689453125	316.1739807128905	-622.9039306640626	1171.106689453125	281.524444580078	-597.6958618164064	1105.478271484375	282.2886352539061	-632.7997436523439	1069.452758789062	269.7243041992186	-629.736999511719	1067.482299804688	320.0814819335936	-634.8887329101564	1007.213928222656	291.5278015136718	-617.9837036132814	957.95458984375	260.7811279296874	-615.600280761719	954.8350830078125	312.0721435546874	-629.6030883789062	896.5142211914062	283.664337158203	-458.1466064453126	678.6512451171875	71.46433258056632	-482.4183349609376	611.0537109375	103.5433044433593	-441.0200195312501	621.3670654296875	78.24912261962882	-492.4067993164062	413.5140075683593	63.19345474243155	-566.9447631835938	400.6179199218749	86.82427978515615	-530.0125122070312	367.3092651367187	78.98043823242178	-692.9762573242188	283.2403564453124	194.8885192871093	-580.1895141601562	93.59841156005857	186.792266845703	-634.5465087890625	112.168472290039	97.24869537353504	-455.3812561035157	636.3554077148438	458.6461181640624	-520.0693359375001	337.5026855468749	428.660186767578	-486.2464294433594	265.6129150390624	426.0048828124999	-532.5420532226564	278.5494384765624	412.0505065917968	-561.5704956054688	65.89032745361325	298.5619506835936	-349.1637878417969	48.55265045166013	309.6766357421874	-403.8011169433594	36.67512512207029	409.9082336425781	-391.4140014648439	1346.703491210938	289.5203857421874	-373.1023864746095	1203.912963867188	284.4734191894531	-487.3981323242189	1412.830322265625	117.9276199340819	-494.2356872558594	1262.42138671875	13.1718044281005	-508.0080261230469	1201.97314453125	-8.540783882141207	-461.5647583007813	1205.170654296875	11.4687376022338	-454.0128784179688	1001.786254882812	-43.89404296875009	-480.5643615722657	928.9909057617188	-30.0578212738038	-434.3446960449219	943.8936767578125	-43.57870483398445	-391.0846862792969	849.0821533203125	-46.22059631347663	-353.5454101562501	859.5148315429688	22.18269729614251	-476.617889404297	1400.350463867188	460.3233337402343	-492.0130920410158	1252.020263671875	560.7899780273436	-467.2960205078127	1191.127685546875	567.4307250976561	-515.144470214844	1194.241943359375	582.5363769531249	-464.1930541992189	975.690673828125	611.7816162109374	-397.2569274902345	932.9119262695312	629.5592041015624	-442.0781860351564	916.9031982421875	611.3663940429686	-389.4422607421877	843.4566650390625	616.9653320312499	-351.6541442871095	839.5657348632812	544.3580322265624	-501.7636718750001	628.2705078125	442.4769592285155	-515.5825805664064	686.38330078125	453.422882080078	
61	0.3	-330.0303344726564	1607.574829101562	305.5067138671874	-379.945281982422	1632.402465820312	369.7756958007812	-373.9463806152345	1631.130981445312	232.811538696289	-557.7726440429689	1446.2431640625	293.7296447753905	-614.8975219726564	1276.123046875	288.2199401855468	-622.6201171875001	1235.938842773438	266.864044189453	-625.8099365234377	1227.899047851562	316.6941833496093	-616.7149047851564	1171.7197265625	282.0373535156249	-591.5654296875001	1106.072509765625	282.7255249023436	-626.7992553710939	1070.08935546875	269.9256286621093	-623.8042602539065	1068.053100585938	320.2570190429686	-628.8668212890626	1007.755920410156	291.5753173828124	-611.7437133789064	958.5809326171875	260.5814208984374	-609.710632324219	955.242431640625	311.9098510742186	-623.7390747070312	897.0661010742188	283.1406860351561	-448.6792602539063	679.9373779296875	71.20246887207023	-473.3187561035157	611.9970703125	102.1118164062499	-431.1502380371094	622.8682861328125	77.95626068115226	-479.757080078125	412.4132995605468	63.8519744873046	-554.077392578125	397.8909912109374	87.22188568115224	-516.402587890625	365.2930603027343	79.76416778564443	-678.3663330078125	277.5650939941406	195.813018798828	-558.9317626953125	91.92076110839841	186.9984893798827	-613.9044189453125	108.7342681884765	97.6148223876952	-452.591278076172	636.8208618164062	458.7789916992187	-518.8716430664064	338.3011169433593	428.5827026367186	-485.2858276367188	266.0893859863281	425.6356506347655	-531.7052001953126	279.3349914550781	411.9984741210936	-561.3262329101562	66.59490203857419	298.4377136230468	-348.7051696777344	48.48893737792967	309.8964843749999	-403.6081542968751	36.58476638793943	409.9299011230468	-385.1942138671876	1347.290893554688	289.5651245117187	-366.8983764648439	1204.442260742188	284.6606445312499	-481.380828857422	1413.170654296875	117.9886169433593	-489.0997314453126	1262.635986328125	13.32169723510733	-503.3726501464844	1202.244995117188	-8.028828620910737	-456.8135681152344	1205.377563476562	11.59637451171867	-450.8902587890626	1001.803894042969	-43.91851806640634	-478.5000000000001	929.1510620117188	-29.94425392150888	-431.7335510253907	943.7413940429688	-44.03011322021492	-389.7261352539063	848.401611328125	-47.03508377075202	-351.5849914550782	858.2454223632812	21.19424629211419	-470.0308227539064	1401.214599609375	460.3553466796874	-484.689910888672	1253.05908203125	561.2163085937499	-459.8016967773439	1192.113525390625	567.8624877929686	-508.2617797851564	1195.56787109375	583.4442138671874	-454.9580993652345	976.9253540039062	612.2882080078124	-387.551483154297	934.9293823242188	629.4283447265624	-431.1172180175783	917.9330444335938	611.1174316406249	-378.363006591797	845.466064453125	616.6585693359374	-341.1964111328127	842.5484008789062	543.7578735351561	-499.0049743652345	628.9844970703125	442.3932800292968	-512.3641357421876	687.2431640625	453.3231201171874	
